<svg version="1.1" id="Layer_1" xmlns="http://www.w3.org/2000/svg" xmlns:xlink="http://www.w3.org/1999/xlink" x="0px" y="0px" viewBox="0 0 480 480" style="enable-background:new 0 0 480 480;" xml:space="preserve">
<style type="text/css">
	.st0{fill:#FFFFFF;}
	.st1{fill:#00FF00;}
</style>
<path class="st0" d="M263.6,129.9H111.5c-26.2,0-48.5,22.3-48.5,48.5v124.6c0,26.2,22.3,48.5,48.5,48.5h152.1
	c26.2,0,48.5-22.3,48.5-48.5V178.4C312.1,150.8,289.8,129.9,263.6,129.9z" id="id_104" style="fill: rgb(255, 255, 255);"></path>
<path class="st0" d="M382.9,140.4l-51.1,44.6c-2.6,2.6-5.2,6.6-5.2,10.5v87.8c0,3.9,1.3,7.9,5.2,10.5l51.1,45.9
	c11.8,10.5,31.5,2.6,31.5-14.4V154.8C414.4,137.7,396,128.6,382.9,140.4z" id="id_105" style="fill: rgb(255, 255, 255);"></path>
<path class="st1" d="M384.2,4H95.8C44.6,4,4,44.6,4,95.8v288.4C4,435.4,44.6,476,95.8,476h288.4c51.1,0,91.8-40.6,91.8-91.8V95.8
	C476,44.6,435.4,4,384.2,4z M305.6,299c0,24.9-21,45.9-45.9,45.9H115.4c-24.9,0-45.9-21-45.9-45.9V181c0-24.9,21-45.9,45.9-45.9
	h144.2c24.9,0,45.9,21,45.9,45.9V299z M410.4,317.4c0,14.4-17,22.3-28.8,13.1l-45.9-40.6c-2.6-2.6-3.9-6.6-3.9-10.5v-78.7
	c0-3.9,1.3-7.9,3.9-9.2l45.9-40.6c10.5-9.2,28.8-2.6,28.8,13.1V317.4z" id="id_106" style="fill: rgb(0, 213, 255);"></path>
</svg>